# xmcd
#
# Track frame offsets:
#	150
#	21714
#	39926
#	56380
#	76292
#	95572
#	111605
#	134254
#	153542
#	172547
#
# Disc length: 2519 seconds
#
# Revision: 0
# Processed by: cddbd v1.5.2PL0 Copyright (c) Steve Scherf et al.
# Submitted via: EasyCDDAExtractor 9.0.0.1
#
DISCID=7b09d50a
DTITLE=Cezary Makiewicz - Do konca zycia
DYEAR=2002
DGENRE=Country
TTITLE0=Ale to bylo wczoraj
TTITLE1=Do konca zycia
TTITLE2=Jestes
TTITLE3=Slonce w twych ramionach
TTITLE4=Gdy wiem, ze na mnie czekasz
TTITLE5=Ustrzyki
TTITLE6=Za kazdym razem
TTITLE7=W pól drogi
TTITLE8=Wszystkie drogi prowadza do Mragowa
TTITLE9=Korale lez
EXTD=
EXTT0=
EXTT1=
EXTT2=
EXTT3=
EXTT4=
EXTT5=
EXTT6=
EXTT7=
EXTT8=
EXTT9=
PLAYORDER=
